<svg xmlns="http://www.w3.org/2000/svg" version="1.0" preserveAspectRatio="xMidYMid meet" viewBox="87 215.01 326.44 55.97">

<g transform="translate(0.000000,500.000000) scale(0.100000,-0.100000)" fill="#000000" stroke="none">
<path d="M1238 2820 c-16 -16 -37 -30 -47 -30 -26 0 -49 -22 -57 -52 -5 -23 -1 -33 24 -56 l30 -28 -20 -55 c-27 -76 -21 -154 16 -185 36 -31 84 -39 129 -21 51 22 71 65 64 138 -6 64 2 77 44 77 l27 0 -15 -37 c-17 -40 -13 -116 9 -150 22 -35 64 -47 104 -28 19 9 34 12 34 7 0 -6 14 -10 30 -10 l30 0 0 169 0 169 -30 4 c-17 3 -32 2 -35 0 -3 -3 -5 -30 -5 -60 0 -47 -2 -53 -15 -42 -9 8 -29 10 -49 7 -29 -5 -33 -3 -29 14 9 34 -6 66 -37 79 -19 8 -30 20 -30 32 0 30 -18 56 -50 73 -47 24 -87 19 -122 -15z m126 -11 c19 -15 26 -30 26 -55 0 -27 4 -34 20 -34 28 0 61 -35 53 -57 -12 -37 -63 -59 -63 -28 0 13 -3 13 -19 3 -13 -8 -17 -16 -11 -24 20 -24 -4 -22 -33 2 -27 23 -38 26 -84 22 -49 -4 -53 -3 -53 18 0 12 -11 29 -25 38 -27 18 -32 45 -13 64 16 16 48 15 48 0 1 -7 7 1 14 18 8 18 22 37 33 43 29 17 78 13 107 -10z m-70 -241 c18 -26 21 -80 6 -109 -6 -11 -21 -19 -35 -19 -29 0 -45 26 -45 72 0 37 24 78 45 78 8 0 21 -10 29 -22z m264 13 c9 -5 12 -27 10 -72 -3 -64 -3 -64 -33 -64 -30 0 -30 1 -33 58 -4 74 17 103 56 78z"/>
<path d="M3432 2748 c-7 -7 -12 -22 -12 -35 0 -27 42 -42 65 -23 28 23 11 70 -25 70 -9 0 -21 -5 -28 -12z"/>
<path d="M3108 2733 l-28 -4 0 -170 0 -169 35 0 34 0 3 68 3 67 40 -67 c39 -67 41 -68 83 -68 l43 0 -19 28 c-11 15 -31 45 -45 68 l-25 40 39 52 40 52 -39 0 c-36 0 -42 -4 -73 -50 -19 -27 -37 -50 -41 -50 -5 0 -8 47 -8 105 0 58 -3 104 -7 104 -5 -1 -20 -4 -35 -6z"/>
<path d="M938 2693 c-84 -52 -92 -219 -14 -280 35 -28 96 -38 140 -23 48 16 59 31 40 58 -14 20 -17 21 -37 7 -33 -23 -73 -19 -96 11 -30 38 -29 131 0 169 22 27 23 27 103 13 10 -2 23 5 30 15 9 15 7 21 -8 33 -27 20 -124 18 -158 -3z"/>
<path d="M2296 2679 c-55 -48 -71 -132 -40 -209 28 -69 106 -104 178 -80 49 16 64 36 43 57 -13 14 -21 14 -42 5 -39 -18 -63 -15 -90 13 -20 19 -25 34 -25 74 0 95 38 137 103 113 26 -10 34 -9 50 5 18 17 18 18 -3 35 -16 13 -40 18 -81 18 -51 0 -63 -4 -93 -31z"/>
<path d="M4096 2658 c-10 -6 -47 -14 -83 -18 -79 -10 -113 -36 -113 -87 0 -19 8 -41 18 -51 16 -16 17 -22 5 -37 -16 -23 -16 -27 1 -50 10 -14 31 -21 73 -25 50 -4 58 -8 58 -25 0 -17 -8 -20 -48 -23 -35 -2 -49 1 -53 12 -4 10 -18 16 -35 16 -52 0 -30 -62 27 -76 40 -10 130 1 158 19 19 13 26 26 26 51 0 46 -28 68 -95 74 -38 3 -55 9 -55 18 0 10 13 14 39 14 74 0 119 72 76 120 -14 16 -13 18 14 23 24 5 28 10 24 27 -7 27 -15 30 -37 18z m-61 -108 c0 -28 -4 -36 -21 -38 -28 -4 -48 22 -40 54 5 20 12 25 34 22 24 -3 27 -7 27 -38z"/>
<path d="M1758 2624 c-81 -44 -75 -189 9 -229 25 -12 48 -15 76 -11 58 10 80 23 68 44 -7 13 -23 17 -61 17 -43 0 -55 4 -67 23 l-15 22 82 0 83 0 -6 47 c-9 86 -93 129 -169 87z m90 -46 c7 -7 12 -20 12 -30 0 -15 -8 -18 -45 -18 -46 0 -53 7 -35 41 12 21 50 25 68 7z"/>
<path d="M2583 2630 c-55 -22 -78 -114 -48 -186 18 -42 72 -69 124 -60 134 21 119 258 -17 255 -20 0 -47 -4 -59 -9z m81 -56 c21 -20 22 -107 2 -124 -8 -6 -25 -10 -37 -8 -52 7 -45 148 7 148 7 0 20 -7 28 -16z"/>
<path d="M2841 2614 c-38 -31 -53 -85 -41 -138 17 -78 89 -113 163 -82 62 26 86 114 49 186 -32 64 -116 81 -171 34z m97 -36 c32 -40 21 -131 -17 -136 -35 -5 -51 15 -51 69 0 64 39 102 68 67z"/>
<path d="M3723 2625 c-14 -10 -24 -12 -28 -5 -3 5 -19 10 -36 10 l-29 0 0 -120 0 -120 35 0 35 0 0 83 c0 69 3 87 18 100 42 38 52 18 52 -99 l0 -84 35 0 35 0 0 105 c0 92 -3 108 -20 125 -24 24 -67 26 -97 5z"/>
<path d="M3362 2608 c2 -18 11 -24 36 -26 l32 -3 0 -70 0 -69 -35 0 c-31 0 -35 -3 -35 -25 l0 -25 100 0 100 0 0 25 c0 21 -5 25 -30 25 l-30 0 0 95 0 95 -71 0 c-67 0 -70 -1 -67 -22z"/>
</g>
</svg>